# xmcd
#
# Track frame offsets: 
#        150
#        15765
#        33596
#        48462
#        64918
#        87630
#        110739
#        133482
#        155906
#        173546
#        194692
#        221548
#        230364
#        239556
#        265742
#        266192
#        280756
#        300337
#        321122
#        337904
#
# Disc length: 4644 seconds
#
# Revision: 0
# Processed by: cddbd v1.5.2PL0 Copyright (c) Steve Scherf et al.
# Submitted via: ExactAudioCopy v0.95b4
#
DISCID=2a122214
DTITLE=Snog - The Last Days Of Rome
DYEAR=2008
DGENRE=Industrial
TTITLE0=One Grain Of Sand
TTITLE1=The Last Days Of Rome
TTITLE2=Lost At Sea
TTITLE3=It's All Lies
TTITLE4=City
TTITLE5=Vaguely Melancholic
TTITLE6=Whateverman
TTITLE7=Christmas Everyday
TTITLE8=I Do Know Now
TTITLE9=The Billionaire's Bullshit Machine
TTITLE10=Go To Sleep (Little Australia)
TTITLE11=One Speck Of Dust
TTITLE12=Untitled
TTITLE13=The Last Days Of Rome (Sir Real Remix)
TTITLE14=Untitled
TTITLE15=The Sickness (Featuring Hecq)
TTITLE16=The Prisoner (Featuring The Namshub Of Enki)
TTITLE17=The Day The Towers Fell
TTITLE18=The Last Days Of Rome (Acoustic)
TTITLE19=A Nation At War
EXTD=
EXTT0=
EXTT1=
EXTT2=
EXTT3=
EXTT4=
EXTT5=
EXTT6=
EXTT7=
EXTT8=
EXTT9=
EXTT10=
EXTT11=
EXTT12=
EXTT13=
EXTT14=
EXTT15=
EXTT16=
EXTT17=
EXTT18=
EXTT19=
PLAYORDER=
